<?xml version="1.0" standalone="no"?><!DOCTYPE svg PUBLIC "-//W3C//DTD SVG 1.1//EN" "http://www.w3.org/Graphics/SVG/1.1/DTD/svg11.dtd"><svg t="1505636329833" class="icon" style="" viewBox="0 0 1024 1024" version="1.1" xmlns="http://www.w3.org/2000/svg" p-id="2507" xmlns:xlink="http://www.w3.org/1999/xlink" width="200" height="200"><defs><style type="text/css"></style></defs><path d="M998.322 729.26s-127.108 342.772-564.708 262.976c-6.886-1.282-13.49-3.676-20.178-5.698-1.564-0.458-3.144-0.958-4.708-1.406a605.806 605.806 0 0 1-19.538-6.394c-0.74-0.258-1.446-0.5-2.196-0.766a653.324 653.324 0 0 1-17.524-6.488c-1.514-0.59-3.02-1.164-4.526-1.78a546.546 546.546 0 0 1-18.554-7.718c-1.13-0.498-2.22-0.998-3.368-1.504a635.524 635.524 0 0 1-15.918-7.37c-1.364-0.692-2.736-1.332-4.11-1.98-0.748-0.374-1.554-0.748-2.32-1.13-3.392-1.696-6.704-3.458-10.046-5.208-2.578-1.33-5.198-2.626-7.76-4a658.206 658.206 0 0 1-14.04-7.876c-1.722-0.982-3.46-1.93-5.166-2.92a664.136 664.136 0 0 1-18.688-11.454c-1.738-1.114-3.458-2.294-5.172-3.444-4.008-2.594-8.018-5.19-11.944-7.9-0.416-0.284-0.814-0.582-1.222-0.874-1.522-1.032-2.968-2.088-4.482-3.186a533.04 533.04 0 0 1-12.3-8.816 1025.1 1025.1 0 0 1-5.864-4.458 642.26 642.26 0 0 1-10.962-8.568c-1.804-1.446-3.634-2.876-5.438-4.34a682.72 682.72 0 0 1-13.15-11.096c-0.816-0.714-1.68-1.414-2.512-2.162-0.084-0.034-0.142-0.1-0.234-0.176a542.98 542.98 0 0 1-14.472-13.182c-1.438-1.314-2.87-2.72-4.316-4.1a629.22 629.22 0 0 1-10.554-10.356c-1.44-1.414-2.862-2.844-4.242-4.276a647.016 647.016 0 0 1-13.232-13.94c-0.158-0.214-0.316-0.34-0.506-0.548-0.076-0.082-0.184-0.192-0.258-0.284a611.642 611.642 0 0 1-13.016-14.854 456.644 456.644 0 0 1-3.56-4.266 662.94 662.94 0 0 1-9.348-11.486 720.224 720.224 0 0 1-3.8-4.84 514.93 514.93 0 0 1-10.114-13.442c-0.616-0.848-1.272-1.68-1.864-2.512a2.82 2.82 0 0 1-0.316-0.432 566.48 566.48 0 0 1-11.094-16.002c-1.122-1.648-2.178-3.344-3.26-5.042a481.476 481.476 0 0 1-7.652-11.976c-1.296-2.062-2.528-4.132-3.776-6.206a487.02 487.02 0 0 1-6.596-11.31c-1.222-2.146-2.428-4.242-3.61-6.446-0.658-1.164-1.372-2.364-2.012-3.584-1.124-2.032-2.138-4.15-3.236-6.222-1.696-3.252-3.418-6.52-5.056-9.83C-13.31 550.2-24.588 381 65.9 250.942l70.628-89.578c-79.686 154.014-43.872 341.556 55.816 477.52 3.6 4.95 7.286 9.832 11.052 14.712 1.166 1.472 2.336 2.954 3.502 4.368a568.354 568.354 0 0 0 9.572 11.836c1.166 1.372 2.304 2.718 3.494 4.132a504.686 504.686 0 0 0 13.292 15.128c0.216 0.24 0.424 0.458 0.632 0.69a607.21 607.21 0 0 0 13.116 13.866c1.38 1.396 2.786 2.778 4.192 4.176a412.4 412.4 0 0 0 10.688 10.47c1.372 1.364 2.752 2.678 4.176 4.034a716.718 716.718 0 0 0 14.87 13.516c0.524 0.458 1.064 0.88 1.546 1.304a672.812 672.812 0 0 0 14.148 11.92c1.664 1.356 3.36 2.71 5.056 4.058a574.17 574.17 0 0 0 11.362 8.874c1.822 1.398 3.692 2.82 5.582 4.216a684.806 684.806 0 0 0 12.576 9.1c1.438 0.972 2.836 2.03 4.292 3.01a475.234 475.234 0 0 0 13.308 8.85c1.68 1.116 3.344 2.28 5.04 3.362a675.074 675.074 0 0 0 18.714 11.46c1.622 0.932 3.244 1.804 4.84 2.704a492.282 492.282 0 0 0 14.38 8.058c2.628 1.462 5.332 2.786 7.992 4.192 3.976 2.046 7.952 4.126 11.976 6.088 1.522 0.748 3.002 1.448 4.492 2.154a742.772 742.772 0 0 0 15.486 7.21c1.232 0.534 2.428 1.09 3.668 1.622 6.064 2.654 12.192 5.2 18.372 7.634 1.588 0.632 3.178 1.24 4.774 1.874a591.29 591.29 0 0 0 17.016 6.312c0.89 0.316 1.78 0.64 2.644 0.956a582.09 582.09 0 0 0 19.296 6.272c1.654 0.516 3.31 1.016 5.006 1.514 6.636 1.962 13.232 4.084 20.036 5.624 179.546 40.862 369.034 4.166 475.79-134.92zM364.88 509.516c9.814 14.048 20.676 30.772 33.692 42.062 4.708 5.196 9.648 10.26 14.68 15.242 1.264 1.296 2.57 2.544 3.876 3.816a431.05 431.05 0 0 0 14.988 13.94c0.216 0.158 0.408 0.376 0.616 0.526 0.058 0.066 0.108 0.082 0.15 0.148 5.69 4.974 11.562 9.774 17.516 14.488 1.324 1.016 2.636 2.072 3.976 3.104 5.98 4.582 12.078 9.09 18.332 13.38 0.192 0.132 0.34 0.268 0.532 0.4 2.752 1.912 5.564 3.692 8.35 5.522 1.348 0.866 2.62 1.796 3.966 2.612a370.788 370.788 0 0 0 13.59 8.334c0.65 0.4 1.282 0.732 1.922 1.106a500.336 500.336 0 0 0 12.01 6.712c1.396 0.782 2.828 1.48 4.258 2.228 2.778 1.448 5.572 2.936 8.4 4.342 0.424 0.2 0.866 0.398 1.274 0.574a399.82 399.82 0 0 0 17.524 8.158c1.264 0.566 2.578 1.064 3.868 1.598a448.032 448.032 0 0 0 14.356 5.83c2.044 0.774 4.118 1.514 6.146 2.254 4.382 1.63 8.766 3.112 13.19 4.592 2.006 0.638 3.968 1.296 5.972 1.912 6.288 1.946 12.508 4.424 19.07 5.506C945.002 733.884 1023 473.746 1023 473.746c-70.32 101.266-206.486 149.582-351.794 111.872a419.016 419.016 0 0 1-19.12-5.54 193.604 193.604 0 0 1-5.766-1.856 395.754 395.754 0 0 1-13.388-4.616c-2.022-0.74-4.05-1.48-6.04-2.246a457.89 457.89 0 0 1-14.396-5.804c-1.306-0.566-2.612-1.066-3.884-1.648a403.666 403.666 0 0 1-17.624-8.188c-2.986-1.458-5.906-2.998-8.85-4.508l-5.098-2.624a427.346 427.346 0 0 1-11.188-6.308c-0.874-0.504-1.788-0.982-2.678-1.51a457.12 457.12 0 0 1-13.54-8.268c-1.374-0.876-2.704-1.83-4.076-2.732a479.692 479.692 0 0 1-8.784-5.804c-6.22-4.292-12.276-8.798-18.256-13.356-1.38-1.086-2.752-2.146-4.118-3.232-63.592-50.222-114-118.846-137.988-196.66-25.11-80.704-19.694-171.294 23.828-244.812l-53.47 75.476c-65.43 94.17-61.878 220.226-10.838 319.82 8.572 16.698 18.194 32.89 28.948 48.314z m356.12-116.504c2.786 1.04 5.564 1.962 8.382 2.916 1.232 0.378 2.462 0.802 3.702 1.168 3.976 1.252 7.926 2.704 12.036 3.476 186.568 36.046 237.16-95.738 250.634-115.132-44.33 63.82-118.81 79.14-210.222 56.962-7.21-1.762-15.144-4.37-22.116-6.832a270.902 270.902 0 0 1-26.248-10.912 272.092 272.092 0 0 1-46.05-28.09c-81.782-62.058-132.582-180.442-79.22-276.85L583.02 59.52c-38.574 56.772-42.358 127.276-15.602 189.982 28.228 66.548 86.072 118.762 153.582 143.51z" fill="#515151" p-id="2508"></path></svg>