<?xml version="1.0" standalone="no"?><!DOCTYPE svg PUBLIC "-//W3C//DTD SVG 1.1//EN" "http://www.w3.org/Graphics/SVG/1.1/DTD/svg11.dtd"><svg t="1508294992751" class="icon" style="" viewBox="0 0 1024 1024" version="1.1" xmlns="http://www.w3.org/2000/svg" p-id="2383" xmlns:xlink="http://www.w3.org/1999/xlink" width="200" height="200"><defs><style type="text/css"></style></defs><path d="M921.6 153.6 102.4 153.6c-56.5504 0-102.4 45.8496-102.4 102.4l0 512c0 56.5504 45.8496 102.4 102.4 102.4l819.2 0c56.5504 0 102.4-45.8496 102.4-102.4L1024 256C1024 199.4496 978.1504 153.6 921.6 153.6zM672.64 524.7744 972.8 296.0128l0 434.9696L672.64 524.7744zM102.4 204.8l819.2 0c20.9408 0 38.9376 12.672 46.848 30.72L511.9744 592.8192 55.5008 235.5456C63.4368 217.472 81.4336 204.8 102.4 204.8zM51.2 296.0384l300.1088 228.736L51.2 730.9824 51.2 296.0384zM921.6 819.2 102.4 819.2c-20.6592 0-38.3744-12.3392-46.464-29.9776l335.0528-231.2448 104.6528 87.68c4.736 3.8912 10.5472 5.888 16.3328 5.888 5.8368 0 11.6224-1.9968 16.384-5.888l104.6272-87.68 335.0784 231.2448C959.9488 806.8608 942.2336 819.2 921.6 819.2z" p-id="2384"></path></svg>