<?xml version="1.0" standalone="no"?><!DOCTYPE svg PUBLIC "-//W3C//DTD SVG 1.1//EN" "http://www.w3.org/Graphics/SVG/1.1/DTD/svg11.dtd"><svg t="1505635349526" class="icon" style="" viewBox="0 0 1025 1024" version="1.1" xmlns="http://www.w3.org/2000/svg" p-id="4586" xmlns:xlink="http://www.w3.org/1999/xlink" width="200.1953125" height="200"><defs><style type="text/css"></style></defs><path d="M503.296 363.008c0-1.536 1.536-1.536 1.536-3.072 8.192-14.336 8.192-24.064 0-33.792-3.072-3.072-8.192-6.144-12.8-9.728-15.872-9.728-33.792-18.944-49.664-28.672-4.608-3.072-9.728-6.144-17.408-6.144-11.264 0-18.944 6.144-24.064 15.872l-143.872 253.952C225.28 607.232 194.56 663.552 162.816 717.824c-17.408 30.208-33.792 60.928-51.2 91.136-9.728 18.944-6.144 30.208 11.264 41.472 12.8 8.192 25.6 15.872 39.936 22.528l9.728 4.608c24.064 14.336 33.792 11.264 48.128-14.336 24.064-41.472 48.128-84.48 71.68-128 35.328-62.464 68.608-122.88 103.936-185.344 36.352-60.416 71.68-122.88 107.008-186.88z m424.96 470.016c4.608-6.144 6.144-12.8 6.144-20.992 0-9.728-4.608-17.408-8.192-25.6-6.144-12.8-161.28-305.152-180.736-340.48-38.4-71.68-78.336-142.336-118.272-212.48-20.992-36.864-43.008-75.264-64-112.128-18.944-30.208-35.328-62.464-59.392-91.136-6.144-6.144-11.264-18.944-22.528-14.336-9.728 4.608-6.144 17.408-4.608 27.136 4.608 24.064 11.264 46.592 18.944 68.608 15.872 41.472 33.792 81.408 51.2 122.88 30.208 70.144 59.392 142.336 91.136 212.48 15.872 35.328 174.08 357.888 196.608 397.824 9.728 15.872 24.064 24.064 41.472 20.992 11.264-1.536 20.992-4.608 30.208-11.264 9.216-5.12 17.408-11.776 22.016-21.504z m-300.544-278.016l-3.072-3.072c-3.072-4.608-9.728-4.608-14.336-4.608h-131.072c-6.144 0-11.264 1.536-14.336 6.144-1.536 1.536-4.608 3.072-6.144 8.192-27.136 49.664-54.272 97.28-81.408 146.944-3.072 4.608-6.144 8.192-4.608 15.872h335.872v-4.608c-28.16-56.32-55.296-110.592-80.896-164.864z m364.544-1.536c-4.608-1.536-9.728-4.608-15.872-4.608-43.008-3.072-86.528 0-131.072 0v4.608c30.208 54.272 60.928 108.544 92.672 162.816 1.536 3.072 3.072 6.144 8.192 6.144 35.328 4.608 64-9.728 73.728-39.936 1.536-6.144 4.608-11.264 4.608-17.408 1.536-20.992 0-41.472 0-62.464 0-8.192-1.536-14.336-4.608-20.992-5.12-12.288-14.848-23.552-27.648-28.16z m-1.536 333.824c-14.336-25.6-41.472-28.672-70.144-11.264-22.528 12.8-27.136 36.864-15.872 60.928 11.264 20.992 28.672 33.792 49.664 43.008 17.408 8.192 35.328 14.336 52.736 28.672 3.072-18.944 1.536-35.328 0-52.736-2.048-23.552-3.584-47.616-16.384-68.608z m-906.24-164.352c3.072-1.536 4.608-4.608 8.192-8.192 24.064-38.4 46.592-78.336 70.144-119.808 8.192-14.336 17.408-28.672 25.6-43.008 1.536-1.536 1.536-3.072 3.072-4.608H52.224c-6.144 0-12.8 1.536-18.944 4.608-17.408 8.192-31.744 27.136-31.744 48.128-1.536 24.064-1.536 46.592 0 68.608 1.536 28.672 28.672 51.2 55.808 54.272 9.216 4.608 18.944 3.072 27.136 0z" fill="#515151" p-id="4587"></path></svg>