<?xml version="1.0" standalone="no"?><!DOCTYPE svg PUBLIC "-//W3C//DTD SVG 1.1//EN" "http://www.w3.org/Graphics/SVG/1.1/DTD/svg11.dtd"><svg t="1508295052569" class="icon" style="" viewBox="0 0 1024 1024" version="1.1" xmlns="http://www.w3.org/2000/svg" p-id="3051" xmlns:xlink="http://www.w3.org/1999/xlink" width="200" height="200"><defs><style type="text/css"></style></defs><path d="M506.357937 97.40546c56.828109 0 111.914055 11.112235 163.726997 33.026289 50.085945 21.185035 95.084934 51.528817 133.746208 90.191102 38.661274 38.661274 69.006067 83.660263 90.191102 133.746208 21.915066 51.812942 33.026289 106.898888 33.026289 163.726997s-11.112235 111.914055-33.026289 163.726997c-21.185035 50.085945-51.528817 95.084934-90.191102 133.746208-38.661274 38.661274-83.660263 69.006067-133.746208 90.191102-51.812942 21.915066-106.898888 33.026289-163.726997 33.026289s-111.914055-11.112235-163.726997-33.026289c-50.085945-21.185035-95.084934-51.528817-133.746208-90.191102-38.661274-38.661274-69.006067-83.660263-90.191102-133.746208-21.915066-51.812942-33.026289-106.898888-33.026289-163.726997s11.112235-111.914055 33.026289-163.726997c21.185035-50.085945 51.528817-95.084934 90.191102-133.746208 38.661274-38.661274 83.660263-69.006067 133.746208-90.191102C394.443883 108.516684 449.528817 97.40546 506.357937 97.40546M506.357937 16.515672c-277.015167 0-501.580384 224.565217-501.580384 501.580384s224.565217 501.580384 501.580384 501.580384 501.580384-224.565217 501.580384-501.580384S783.373104 16.515672 506.357937 16.515672L506.357937 16.515672z" p-id="3052"></path><path d="M506.493428 17.471183c-276.651163 0-501.718908 224.793731-501.718908 501.097068 0 276.299292 225.067745 501.083923 501.718908 501.083923 276.637007 0 501.695652-224.78362 501.695652-501.083923C1008.188069 242.264914 783.130435 17.471183 506.493428 17.471183L506.493428 17.471183zM506.493428 964.442872c-246.162791 0-446.43276-200.015167-446.43276-445.874621 0-245.857432 200.26997-445.88271 446.43276-445.88271 246.153691 0 446.408493 200.025278 446.408493 445.88271C952.901921 764.427705 752.647118 964.442872 506.493428 964.442872L506.493428 964.442872zM506.493428 964.442872" p-id="3053"></path><path d="M647.806876 244.510617c-40.501517-20.538928-95.19818-61.828109-127.499494 26.473205-32.339737 88.335693 1.383215 98.734075 43.09909 119.966633 29.220425 14.813953 2.085945 86.017189-29.670374 150.273003-31.80182 64.244692-71.782609 128.859454-100.988878 114.112235-41.755308-21.221436-70.17088-42.364004-120.562184 36.773509-50.38726 79.145602 14.917088 98.834176 55.400404 119.388271 46.683519 23.731041 165.987867-53.379171 251.69363-226.796764C704.987867 411.26087 694.446916 268.236603 647.806876 244.510617L647.806876 244.510617zM647.806876 244.510617" p-id="3054"></path></svg>