<?xml version="1.0" standalone="no"?><!DOCTYPE svg PUBLIC "-//W3C//DTD SVG 1.1//EN" "http://www.w3.org/Graphics/SVG/1.1/DTD/svg11.dtd"><svg t="1505636188640" class="icon" style="" viewBox="0 0 1041 1024" version="1.1" xmlns="http://www.w3.org/2000/svg" p-id="1982" xmlns:xlink="http://www.w3.org/1999/xlink" width="203.3203125" height="200"><defs><style type="text/css"></style></defs><path d="M0 0v1024.000032h1041.362376V0H0z m958.522434 942.559669H82.802116V81.440363H958.522434v861.119306z" fill="#515151" p-id="1983"></path><path d="M491.706122 287.367598c-26.213735-22.658048-65.288466-35.519044-120.02335-35.519044-54.205314 0-120.02335 1.740017-120.02335 1.740017v419.987159h87.98434v-134.964801s15.395368-0.189132 32.03901-0.870008c60.257547-2.534373 95.549632-20.766725 125.848624-51.595289 23.301098-23.868495 36.124267-57.87448 36.124267-99.370104s-16.908427-77.998155-41.949541-99.40793zM369.337532 464.130634c-14.184922 0.151306-20.161502 0.605223-29.731596-0.302612V318.801384s18.648444-0.64305 36.72949 0c45.316096 1.664364 69.335897 33.665547 69.335897 72.664625 0 43.424773-29.126372 72.097228-76.333791 72.664625z m336.088075 12.860996c-38.01559-13.466219-50.08223-21.14499-50.08223-35.897309 0-16.000592 13.314913-25.608512 36.767317-25.608511 26.592 0 66.83935 17.173212 80.797313 24.889809V369.602317c-18.988882-9.60792-47.850469-21.409775-83.974736-21.409775-76.674229 0-126.113409 44.219129-126.113409 103.190576-0.64305 36.502532 24.057627 62.602787 88.09782 84.390827 36.124267 12.180119 45.618708 29.012893 45.618707 45.051311s-12.028814 26.289388-41.193012 26.289388c-28.521149 0-70.357211-16.303203-88.09782-27.159397v69.865467c23.452404 12.785343 57.420563 24.927636 88.09782 25.873297 89.383919 2.799158 134.321751-43.576079 134.321751-101.904476-0.64305-46.148278-25.343727-76.258138-84.277348-96.760079z" fill="#515151" p-id="1984"></path></svg>