<?xml version="1.0" standalone="no"?><!DOCTYPE svg PUBLIC "-//W3C//DTD SVG 1.1//EN" "http://www.w3.org/Graphics/SVG/1.1/DTD/svg11.dtd"><svg t="1508299891480" class="icon" style="" viewBox="0 0 1024 1024" version="1.1" xmlns="http://www.w3.org/2000/svg" p-id="2497" xmlns:xlink="http://www.w3.org/1999/xlink" width="200" height="200"><defs><style type="text/css"></style></defs><path d="M512.028653 64.423265c-247.194962 0-447.573665 200.326515-447.573665 447.578782 0 247.194962 200.378703 447.573665 447.573665 447.573665s447.51636-200.441125 447.516359-447.573665c0-247.252267-200.321398-447.578782-447.516359-447.578782z m298.264081 745.906308c-38.721907 38.720883-83.797521 69.171406-134.026507 90.390683-51.965535 22.001083-107.173928 33.150004-164.180269 33.150004-56.942897 0-112.208595-11.148921-164.237575-33.150004-50.230008-21.218254-95.368044-51.605332-134.089951-90.390683-38.721907-38.720883-69.171406-83.916225-90.390683-134.147257-22.058388-51.90823-33.207309-107.23635-33.20731-164.180269s11.148921-112.151289 33.150005-164.18027c21.218254-50.230008 51.668777-95.305623 90.390683-134.089951 38.720883-38.721907 83.859943-69.171406 134.083811-90.390683C399.812895 101.402481 455.078593 90.197278 512.022513 90.197278c57.006342 0 112.208595 11.211343 164.17413 33.143865 50.230008 21.218254 95.305623 51.668777 134.026506 90.390683 38.721907 38.784328 69.171406 83.859943 90.51041 134.089951 21.938662 51.970652 33.143864 107.173928 33.143864 164.18027s-11.268648 112.329345-33.143864 164.180269c-21.271466 50.167586-51.721988 95.362928-90.442872 134.147257h0.002047z" fill="" p-id="2498"></path><path d="M332.620563 486.072491l-0.964977-2.967588-0.77362-3.892657-0.538259-2.142803v-8.752338l0.927115-3.430122 0.962932-3.665483 1.234107-3.814886 1.678222-4.242627 2.216481-4.433986 3.122107-4.432962v-3.124154l0.308016-2.891864 0.464581-3.972474 1.350764-4.3951 1.234107-4.820796 0.980327-2.196015 1.139963-2.062985 1.462305-2.293229 1.581008-1.676176v-10.968819l0.924046-5.649674 0.926092-6.554276 1.658779-7.845688 2.27481-8.152681 1.696641-4.491291 1.677199-4.897543 1.829672-4.54962 2.201131-4.895497 2.234901-5.321192 2.582825-5.030573 2.892887-5.341658 3.663436-5.340635 1.676175-3.044336 1.812276-2.526543 3.914146-5.630231 4.009314-5.628184 4.589528-5.80317 4.89652-5.64865 5.320169-5.552459 5.552459-5.726422 6.707772-6.169513 4.282537-3.740184 5.185092-4.028756 5.261841-3.585665 5.703909-3.430123 5.478781-3.047406 6.167466-2.505053 6.5553-3.14155 6.51846-2.13871 6.514368-2.199085 7.01681-2.200109 7.016811-1.695618 7.401574-1.367137 7.481391-1.214664 14.765285-2.005681 7.868202-0.424672h23.251563l7.749498 0.962931 7.786337 0.925069 7.945973 0.848321 7.362688 1.75497 7.788383 1.677199 7.308453 1.886977 8.002254 2.140756 7.323803 2.601245 7.017834 2.969634 7.481391 3.122107 6.842849 3.432169 6.630001 3.799536 6.497994 4.201696 5.627161 3.874237 2.584871 2.217504 2.739391 1.600451 5.200442 4.432963 4.39817 4.261047 4.355191 4.414543 4.279467 4.89652 3.505847 4.705162 4.167926 4.89652 2.929726 5.242398 2.949168 4.664229 3.14155 5.398964 2.582825 4.743024 4.3951 9.986445 2.158153 5.16565 1.677199 4.799306 1.678222 5.185092 1.503237 4.878101 1.078565 4.184299 1.351787 4.972245 2.387373 8.830109 1.524727 7.711636 0.982374 7.459902 0.84832 6.012947 1.351788 9.156544 0.308015 1.446955 1.079588 1.677199 2.892887 4.723581 1.849114 3.181459 1.658779 3.373841 2.121314 3.565198 1.850138 4.279467 1.195221 4.435009 1.309832 4.78191 1.001817 4.952802 0.464581 2.449795 0.38681 2.966565v2.585894l-0.387833 2.601245v3.218298l-0.77362 3.103687-1.387603 6.034437-1.582031 3.046383-1.153266 3.430122v0.827855l0.537235 1.063215 1.581009 2.52552 6.865361 10.138917 5.434779 7.614422 2.580778 5.110391 3.509941 5.570879 3.048429 6.090718 3.507893 6.55223 3.509941 7.328919 3.952008 8.29185 2.217505 5.105275 2.041496 4.953825 1.774412 5.26491 1.736551 4.726652 1.310855 4.952802 1.348718 4.646833 1.701758 9.078773 1.345648 9.292643 0.924045 8.233522v11.58485l-0.61603 4.128017-0.886183 7.073092-1.234108 6.401804-1.887999 5.779633-0.693802 2.375094-1.310855 2.835581-1.117451 1.964748-1.465374 2.449795-1.310855 1.524726-1.657756 1.984191-1.467421 1.597381-1.577939 1.370207-1.89107 0.830925-1.699711 0.845251-1.387603 0.463557h-2.119267l-1.368161-0.463557-2.601244-1.290389-1.196245-0.827855-1.233084-0.927116-1.365091-1.233083-1.369183-1.349741-2.27481-2.524497-2.701528-3.565199-2.118244-3.682879-2.124384-2.948145-2.061962-3.432169-2.910283-6.108114-3.275603-6.344499-0.38681-0.214894h-0.539282l-1.350764 0.980327-0.771573 1.678222-1.270946 2.065032-2.236948 6.169513-3.354397 8.772804-4.320399 10.503215-3.238764 5.28026-3.41375 5.477758-4.02671 6.167467-4.281513 6.036483-2.196015 2.735297-2.662643 2.969635-6.110161 6.033413 0.536213 0.51984 0.830924 0.849344 3.048429 1.827625 12.721743 6.094812 5.553483 3.12313 5.281283 3.047406 5.244444 3.815909 4.666277 3.969405 2.276856 1.738597 1.697665 2.065032 1.733481 2.373047 1.465374 2.580778 0.77055 2.13871 0.966001 2.603291 0.386809 2.196015 0.461512 2.585895-0.461512 1.75497v1.749854l-0.386809 1.835811-0.966001 1.672082-0.382717 1.310855-0.851391 1.583055-2.311648 3.125177-2.119267 2.527567-1.65878 1.905396-1.38965 1.369183-3.507893 2.584872-3.973498 2.212388-4.241604 2.137687-4.511757 2.062985-5.090949 1.968841-2.700505 0.849344-2.425236 0.675382-5.862521 1.365091-6.090718 1.312902-6.094812 1.291412-6.631024 1.063215-6.862292 0.308015-7.01681 0.846274h-21.787212l-7.866155-0.465604-7.326873-0.689708-7.865131-1.062192-7.826246-0.829901-8.251941-1.153266-7.978718-1.985215-7.792477-1.525749-7.748475-2.196015-7.945972-2.837628-7.786337-2.369977-4.087085-1.345648-3.662413-1.316995-2.315742-0.90358-2.272763-0.443091h-6.480598l-7.476275-0.542352-3.800559-0.38374-4.878101-0.541329-3.125177 2.814092-4.27742 2.662643-5.783727 2.835581-6.398733 3.507894-3.895727 1.910512-4.047176 1.505284-8.984628 3.657296-4.878101 1.233084-5.109368 1.372254-7.096628 1.367137-4.43194 0.385786-4.702092 0.385787-4.897543 0.539282-5.705955 0.232291H414.647765l-13.169951-0.232291-12.763698-1.310855-6.474458-0.906649-12.34005-1.833765-6.092765-1.233084-5.64865-1.810229-5.64865-1.312902-5.089926-2.040472-4.816702-1.910513-4.473894-2.140756-3.892657-2.351558-3.895727-2.831488-1.310855-1.370207-1.734504-1.65878-1.311879-1.467421-1.195221-1.672082-1.081635-1.683339-0.846274-1.672082-1.216711-3.569292-0.442069-1.848091-0.539282-2.043543v-1.911536l0.539282-2.136663v-2.14178l0.442069-2.139733v-4.263094l0.212847-2.292206 1.003864-2.583848 0.845251-2.583848 1.542122-3.121084 1.11745-1.23513 0.926093-1.368161 2.428305-2.967588 1.926886-1.525749 1.812275-1.078565 1.678222-1.349741 2.677993-0.849344 2.12029-1.291412 2.662643-1.366114 3.046382-0.930186 3.046383-0.919952 3.510963-0.75213 3.351328-0.443091 3.972475-0.541329 4.279466-0.306992 1.137917-0.38988h0.230244l0.540305-0.456395v-0.524956l-0.772596-1.060145-2.292206-1.081635-5.705955-4.952802-3.817955-3.046382-4.433986-3.871167-4.473895-4.361331-4.665253-5.547343-5.318122-6.245238-2.006704-3.372817-2.661619-3.491521-2.273786-4.047176-2.043543-4.435009-2.778276-4.181229-1.810229-4.80033-2.137687-4.800329-2.142803-5.340635-1.578961-5.089925-1.465375-6.342452-0.462534-0.230244h-0.443092l-0.230244-0.444115h-0.539282l-0.905626 0.444115-0.462534 0.230244-0.618077 1.061169-0.230244 1.310855-0.461511 1.136893-0.809435 1.910513-2.624781 4.64581-1.348717 2.832511-2.139734 2.432399-2.293229 2.964518-2.506077 3.28072-2.659573 2.892887-3.12313 2.811022-2.911306 2.663666-3.181459 2.079358-3.508917 2.199085-3.354398 1.308809-3.972475 0.98442-3.89368 0.364297h-0.925068l-0.889253-0.364297-0.692779-1.523703-1.157359-0.770549-1.502214-3.665483-0.925068-1.964748-1.00284-2.835581-0.828878-2.948146-0.443092-2.912329-1.233084-6.627954-0.462534-3.898797v-12.797467l0.462534-9.524934 0.771573-4.874008 0.905626-5.034666 0.828878-5.415337 1.464351-5.01113 1.658779-5.822612 1.695619-5.631254 2.276856-5.783727 2.140757-5.566786 2.948145-5.649673 2.777253-6.090719 3.353374-5.705955 3.949962-6.172583 4.030803-5.571902 4.202719-6.16542 3.50994-4.262071 4.491291-4.974291 4.723581-4.934382 2.199085-2.372024 2.679016-2.679016 3.874237-3.354398 3.972475-3.430122 6.477528-5.783727 4.895497-3.585665 1.738597-1.295505z" fill="" p-id="2499"></path></svg>