<?xml version="1.0" standalone="no"?><!DOCTYPE svg PUBLIC "-//W3C//DTD SVG 1.1//EN" "http://www.w3.org/Graphics/SVG/1.1/DTD/svg11.dtd"><svg t="1505635122346" class="icon" style="" viewBox="0 0 1041 1024" version="1.1" xmlns="http://www.w3.org/2000/svg" p-id="1915" xmlns:xlink="http://www.w3.org/1999/xlink" width="203.3203125" height="200"><defs><style type="text/css"></style></defs><path d="M803.672131 1024l-62.95082 0c-9.269718 0-16.786885-7.517167-16.786885-16.786885l0-32.491016c-25.71583-5.662216-50.422767-15.905574-72.667069-30.127423l-22.994675 22.994675c-3.14922 3.147541-7.418125 4.916879-11.870007 4.916879s-8.720787-1.769338-11.870007-4.916879l-44.513784-44.513784c-6.555279-6.555279-6.555279-17.184734 0-23.741692l22.994675-22.994675c-14.223528-22.244302-24.465207-46.951239-30.127423-72.667069L520.393443 803.672131c-9.271397 0-16.786885-7.517167-16.786885-16.786885l0-62.95082c0-9.269718 7.515489-16.786885 16.786885-16.786885l32.491016 0c5.662216-25.71583 15.905574-50.422767 30.127423-72.667069l-22.994675-22.994675c-6.555279-6.555279-6.555279-17.184734 0-23.741692l44.513784-44.513784c6.556957-6.5536 17.183056-6.5536 23.741692 0l22.994675 22.994675c22.24598-14.223528 46.951239-24.465207 72.667069-30.125744L723.934426 503.606557c0-9.271397 7.517167-16.786885 16.786885-16.786885l62.95082 0c9.269718 0 16.786885 7.515489 16.786885 16.786885l0 32.492695c25.71583 5.660538 50.421089 15.903895 72.667069 30.125744l22.994675-22.994675c6.556957-6.5536 17.183056-6.5536 23.741692 0l44.513784 44.513784c3.147541 3.14922 4.916879 7.418125 4.916879 11.870007s-1.769338 8.720787-4.916879 11.870007l-22.994675 22.994675c14.223528 22.244302 24.465207 46.951239 30.127423 72.667069L1024 707.145862c9.269718 0 16.786885 7.517167 16.786885 16.786885l0 62.95082c0 9.269718-7.517167 16.786885-16.786885 16.786885l-32.491016 0c-5.662216 25.71583-15.905574 50.422767-30.127423 72.667069l22.994675 22.994675c6.555279 6.555279 6.555279 17.184734 0 23.741692l-44.513784 44.513784c-6.556957 6.5536-17.183056 6.5536-23.741692 0l-22.994675-22.994675c-22.244302 14.223528-46.951239 24.465207-72.667069 30.127423L820.459016 1007.213115C820.459016 1016.482833 812.941849 1024 803.672131 1024zM757.508197 990.42623l29.377049 0 0-29.648997c0-8.296079 6.060066-15.349928 14.263816-16.597193 30.238216-4.596249 59.297993-16.644197 84.043541-34.84118 6.679502-4.9152 15.94922-4.210151 21.814557 1.653508l20.983607 20.983607 20.772092-20.772092-20.983607-20.983607c-5.863659-5.865338-6.56703-15.135056-1.653508-21.814557 18.196984-24.745548 30.244931-53.807003 34.84118-84.043541 1.247266-8.203751 8.299436-14.263816 16.597193-14.263816L1007.213115 770.098361l0-29.377049-29.648997 0c-8.296079 0-15.349928-6.060066-16.597193-14.263816-4.596249-30.238216-16.644197-59.297993-34.84118-84.043541-4.913521-6.679502-4.210151-15.94922 1.653508-21.814557l20.983607-20.983607-20.772092-20.772092-20.983607 20.983607c-5.867016 5.86198-15.138413 6.563672-21.814557 1.653508-24.745548-18.196984-53.808682-30.244931-84.043541-34.839502-8.202072-1.247266-14.263816-8.299436-14.263816-16.597193L786.885246 520.393443l-29.377049 0 0 29.650675c0 8.296079-6.061744 15.349928-14.263816 16.597193-30.236538 4.59457-59.297993 16.642518-84.043541 34.839502-6.679502 4.913521-15.94922 4.210151-21.814557-1.653508l-20.983607-20.983607-20.772092 20.772092 20.983607 20.983607c5.863659 5.865338 6.56703 15.135056 1.653508 21.814557-18.196984 24.745548-30.244931 53.807003-34.84118 84.043541-1.247266 8.203751-8.299436 14.263816-16.597193 14.263816L537.180328 740.721311l0 29.377049 29.648997 0c8.296079 0 15.349928 6.060066 16.597193 14.263816 4.596249 30.238216 16.644197 59.297993 34.84118 84.043541 4.913521 6.679502 4.210151 15.94922-1.653508 21.814557l-20.983607 20.983607 20.772092 20.772092 20.983607-20.983607c5.865338-5.863659 15.136734-6.56703 21.814557-1.653508 24.745548 18.196984 53.807003 30.244931 84.043541 34.84118 8.203751 1.247266 14.263816 8.299436 14.263816 16.597193L757.508197 990.42623z" p-id="1916" fill="#515151"></path><path d="M772.196721 866.622951c-61.322492 0-111.213115-49.890623-111.213115-111.213115s49.890623-111.213115 111.213115-111.213115 111.213115 49.890623 111.213115 111.213115S833.519213 866.622951 772.196721 866.622951zM772.196721 677.770492c-42.809915 0-77.639344 34.82943-77.639344 77.639344s34.82943 77.639344 77.639344 77.639344 77.639344-34.82943 77.639344-77.639344S815.006636 677.770492 772.196721 677.770492z" p-id="1917" fill="#515151"></path><path d="M441.646164 814.499672 218.229508 814.499672c-9.271397 0-16.786885 7.517167-16.786885 16.786885s7.515489 16.786885 16.786885 16.786885l231.188984 0C446.274308 837.101534 443.670662 825.901325 441.646164 814.499672z" p-id="1918" fill="#515151"></path><path d="M443.180485 705.047502c2.31659-11.411725 5.215685-22.611934 8.658675-33.572092L33.572092 671.47541 33.572092 33.57377l973.639344 0 0 498.891121c5.905626 5.789797 11.598059 11.792787 17.063869 18.003934 0.182977 0.208157 0.369311 0.412957 0.552289 0.621115 1.08779 1.24223 2.162151 2.49621 3.231475 3.753548 0.510321 0.599292 1.018964 1.200262 1.524249 1.802911 0.955174 1.13983 1.90699 2.284695 2.848734 3.436275 0.622793 0.762125 1.235515 1.530964 1.851593 2.298125 0.861167 1.074361 1.72737 2.145364 2.575108 3.229797 1.324485 1.693797 2.635541 3.402702 3.928131 5.123357L1040.786885 16.786885c0-9.271397-7.517167-16.786885-16.786885-16.786885L16.785207 0c-9.271397 0-16.786885 7.515489-16.786885 16.786885l0 671.47541c0 9.269718 7.515489 16.786885 16.786885 16.786885L443.180485 705.047502C443.180485 705.04918 443.180485 705.04918 443.180485 705.047502z" p-id="1919" fill="#515151"></path><path d="M603.488525 473.823266c0.585862-1.076039 1.19019-2.12522 1.764302-3.219725 0.877954 0.245089 1.739121 0.491856 2.583502 0.738623 12.167134-6.844013 24.802623-12.951082 37.84939-18.262452-7.30901-3.80223-16.756669-7.4752-27.794046-10.767108 8.549561-22.811698 14.352787-48.122964 16.002938-74.490125l46.701115 0c-3.03339 32.005875-15.482544 61.305705-34.537338 85.104472 14.722098-5.972774 29.961233-10.929941 45.635148-14.787567 12.939331-25.781298 20.23659-54.862898 20.23659-85.61983 0-105.611331-85.921993-191.533325-191.536682-191.533325-105.61301 0-191.533325 85.921993-191.533325 191.533325 0 105.03722 84.992 190.588223 189.814348 191.516538C542.824079 516.242046 571.477613 492.46678 603.488525 473.823266zM680.594046 337.219987l-46.701115 0c-1.650151-26.365482-7.453377-51.676748-16.002938-74.486767 11.128026-3.318767 20.64619-7.025311 27.978702-10.859436C665.030925 275.714518 677.550584 305.104997 680.594046 337.219987zM622.998243 228.639056c-4.821193 1.861666-10.785574 3.855948-17.747095 5.803226-5.341587-10.184603-11.213639-19.591974-17.443252-28.027384C600.518925 212.302059 612.33857 219.792367 622.998243 228.639056zM535.69301 197.371803c11.858256 7.75722 25.922308 23.023213 38.183449 43.914492-11.556092 1.88181-24.379593 3.305338-38.183449 3.934846L535.69301 197.371803zM535.69301 275.843777c18.341351-0.782269 36.073338-2.907489 52.166925-5.92577 7.89823 19.753128 13.664525 42.487607 15.383502 67.30198l-67.550426 0L535.69301 275.843777zM535.69301 367.824157l67.550426 0c-1.718977 24.817731-7.485272 47.55221-15.383502 67.307016-16.093587-3.018282-33.823895-5.14518-52.166925-5.92577L535.69301 367.824157zM535.69301 459.826361c13.803856 0.62783 26.629036 2.053036 38.183449 3.933167-12.261141 20.8896-26.325193 36.157272-38.183449 43.91617L535.69301 459.826361zM452.972275 206.414898c-6.296761 8.526059-12.227567 18.044223-17.616157 28.356407-7.146177-1.900275-13.256603-3.849233-18.108013-5.680682C428.050466 220.050885 440.049731 212.40278 452.972275 206.414898zM394.621062 252.244774c7.374479 3.976813 16.976577 7.676643 28.107961 10.916511-8.462269 22.697548-14.198348 47.85941-15.838426 74.058702l-46.696079 0C363.221193 305.272866 375.625023 276.020039 394.621062 252.244774zM360.192839 367.824157l46.696079 0c1.6384 26.187541 7.371121 51.337652 15.824997 74.026807-11.027305 3.159292-20.694872 6.812118-28.165036 10.864472C375.594807 428.955279 363.216157 399.732669 360.192839 367.824157zM417.248105 475.953521c4.853089-1.828092 10.961836-3.780407 18.108013-5.679003 5.38859 10.313862 11.319397 19.832026 17.616157 28.358085C440.048052 492.6464 428.048787 484.994938 417.248105 475.953521zM505.090518 507.675698c-11.868328-7.763934-25.94581-23.051751-38.213666-43.96821 11.727318-1.846557 24.606216-3.256656 38.213666-3.881128L505.090518 507.675698zM505.090518 429.215475c-17.233416 0.763803-35.30282 2.763121-52.222321 5.774689-7.869692-19.722911-13.610807-42.408708-15.324748-67.167685l67.547069 0L505.090518 429.215475zM505.090518 337.219987l-67.547069 0c1.712262-24.728761 7.443305-47.389377 15.297889-67.09718 16.399108 2.957849 34.268748 4.982348 52.24918 5.7344L505.090518 337.219987zM466.876852 241.340013c12.267856-20.916459 26.345338-36.202597 38.213666-43.964852l0 47.847659C491.484748 244.59499 478.60417 243.18657 466.876852 241.340013z" p-id="1920" fill="#515151"></path></svg>